<svg xmlns="http://www.w3.org/2000/svg" width="18.18" height="31.714" viewBox="0 0 18.18 31.714">
  <path id="iconmonstr-help-1" d="M17.648,28.411a3.3,3.3,0,1,1-3.3-3.3A3.3,3.3,0,0,1,17.648,28.411ZM14.45,0C9.126,0,5.121,3.559,5.121,10.571h5.226c0-3.045,1.2-5.536,4-5.536A3.439,3.439,0,0,1,17.89,8.222c.163,2.2-1.014,3.318-2.5,4.733-3.864,3.674-3.721,5.351-3.721,9.509h5.21c0-1.919-.207-3.314,2.429-6.157,1.759-1.9,3.946-4.258,3.992-7.853C23.362,3.218,19.665,0,14.45,0Z" transform="translate(-5.121)" fill="#a06ef9"/>
</svg>
