<svg xmlns="http://www.w3.org/2000/svg" width="1920" height="1218" viewBox="0 0 1920 1218">
  <g id="Group_705" data-name="Group 705" transform="translate(0 0)">
    <g id="backgroundtrivia" transform="translate(0 0.05)">
      <path id="Path_228" data-name="Path 228" d="M203.655,112.891l-.711-5.336a15.3,15.3,0,0,0,7.312-27.273,14.941,14.941,0,0,0-11.265-3L198.28,71.9a20.671,20.671,0,1,1,5.376,40.991Z" transform="translate(1162.013 212.039)"/>
      <path id="Path_229" data-name="Path 229" d="M89.693,258.644a29.723,29.723,0,0,1-7.905-1.146A29.131,29.131,0,0,1,64.12,243.506l6.68-3.715a21.776,21.776,0,1,0,38.028-21.228l6.715-3.713a29.447,29.447,0,0,1-11.581,40.118A29.052,29.052,0,0,1,89.693,258.644Z" transform="translate(347.148 710.051)"/>
      <path id="Path_230" data-name="Path 230" d="M250.725,219.561a30.01,30.01,0,1,1,40.356-44.427l-5.257,5.81a22.176,22.176,0,1,0-29.8,32.846Z" transform="translate(1526.247 545.443)"/>
      <path id="Path_231" data-name="Path 231" d="M92.688,43.469a15.9,15.9,0,0,1-.909-31.779l.237,4.15a11.858,11.858,0,0,0-7.075,20.514A11.462,11.462,0,0,0,93.4,39.279l.277,3.953Z" transform="translate(417.268 1.501)"/>
      <path id="Path_232" data-name="Path 232" d="M296.028,184.037l-3.281-4.466a15.81,15.81,0,0,0-18.577-25.455l-3.281-4.466a21.3,21.3,0,1,1,25.138,34.387Z" transform="translate(1614.817 467.508)"/>
      <path id="Path_233" data-name="Path 233" d="M187.664,227.215l-4.545-7.036a23.726,23.726,0,0,0-25.652-39.921L153,173.1a32.131,32.131,0,0,1,34.664,54.111Z" transform="translate(896.823 548.416)"/>
      <path id="Path_234" data-name="Path 234" d="M20.984,53.869A16.324,16.324,0,0,1,7.11,46.241l3.518-2.293a12.332,12.332,0,0,0,7.628,5.376,11.858,11.858,0,0,0,9.13-1.581,12.095,12.095,0,0,0,3.953-16.68l3.636-2.253A16.324,16.324,0,0,1,21.142,53.869Z" transform="translate(-7.11 52.049)"/>
      <path id="Path_235" data-name="Path 235" d="M269.939,83.7a21.265,21.265,0,0,1,33.2-26.522l-4.348,3.439a15.81,15.81,0,0,0-24.545,19.763Z" transform="translate(1599.838 114.191)"/>
      <path id="Path_236" data-name="Path 236" d="M128.588,223.731a33.557,33.557,0,0,1,42.688-51.739l-5.573,6.759a24.806,24.806,0,0,0-31.581,38.261Z" transform="translate(676.921 537.927)"/>
      <path id="Path_237" data-name="Path 237" d="M250.938,22.052h0a12.648,12.648,0,0,1,5.692,23.913,12.332,12.332,0,0,1-5.692,1.383,12.648,12.648,0,0,1-5.692-23.913,12.331,12.331,0,0,1,5.692-1.383m0-5.652a18.261,18.261,0,1,0,16.324,10.04A18.261,18.261,0,0,0,250.938,16.4Z" transform="translate(1502.041 15.408)"/>
      <path id="Path_238" data-name="Path 238" d="M65.7,111.015H66.8A10.168,10.168,0,0,1,65.7,131.292H64.628a10.158,10.158,0,0,1,1.028-20.277m0-4.546a14.7,14.7,0,0,0-1.5,29.289,10.129,10.129,0,0,0,1.541,0,14.7,14.7,0,0,0,1.542-29.289H65.656Z" transform="translate(123.317 332.289)"/>
      <path id="Path_239" data-name="Path 239" d="M269.536,91.683a10.632,10.632,0,0,1,2.964,20.83,9.607,9.607,0,0,1-2.964.435,10.632,10.632,0,0,1-2.964-20.83,10.992,10.992,0,0,1,2.964-.435m0-4.743a14.506,14.506,0,0,0-4.269.632,15.375,15.375,0,0,0,4.269,30.119,15.812,15.812,0,0,0,4.269-.593,15.376,15.376,0,0,0-4.269-30.158Z" transform="translate(1565.697 264.542)"/>
      <path id="Path_240" data-name="Path 240" d="M140.341,20.315h0a15.81,15.81,0,1,1-15.52,13.609,15.81,15.81,0,0,1,15.52-13.609m0-7.115a23,23,0,0,0-9.526,43.953,22.648,22.648,0,0,0,9.526,2.095,23,23,0,0,0,9.526-43.953,22.648,22.648,0,0,0-9.526-2.095Z" transform="translate(674.53 5.959)"/>
      <path id="Path_241" data-name="Path 241" d="M212.9,140.728h0a11.858,11.858,0,1,1-10.564,10.785A11.858,11.858,0,0,1,212.9,140.728m0-5.217a16.917,16.917,0,0,0-2.846,33.557,18.148,18.148,0,0,0,2.885.237,16.877,16.877,0,0,0,2.885-33.518,14.93,14.93,0,0,0-2.925-.277Z" transform="translate(1155.096 433.39)"/>
      <path id="Path_242" data-name="Path 242" d="M67.165,147.746h0A13.794,13.794,0,1,1,56.3,153a13.794,13.794,0,0,1,10.87-5.257m0-6.166a19.763,19.763,0,1,0,12.253,4.269,19.763,19.763,0,0,0-12.253-4.269Z" transform="translate(111.807 454.86)"/>
      <path id="Path_243" data-name="Path 243" d="M30.015,264.489h0a9.684,9.684,0,1,1-5.81,1.976,9.486,9.486,0,0,1,5.81-1.976m0-4.269a13.873,13.873,0,1,0,11.067,5.454,13.873,13.873,0,0,0-11.067-5.454Z" transform="translate(19.669 873.303)"/>
      <path id="Path_244" data-name="Path 244" d="M155.959,74.415h0a17.431,17.431,0,1,1-14.249,7.43,17.391,17.391,0,0,1,14.249-7.43m0-7.905a24.507,24.507,0,0,0-8.617,1.542,25.1,25.1,0,1,0,8.617-1.542Z" transform="translate(760.179 194.172)"/>
      <path id="Path_245" data-name="Path 245" d="M149.378,255.917h0a10.078,10.078,0,0,1,4.387,1.028,9.917,9.917,0,1,1-4.387-1.028m0-4.427a14.348,14.348,0,0,0-6.364,27.233,14.627,14.627,0,0,0,6.324,1.462,14.348,14.348,0,0,0,6.364-27.194,13.915,13.915,0,0,0-6.324-1.5Z" transform="translate(776.925 847.527)"/>
      <path id="Path_246" data-name="Path 246" d="M131.7,54.9l16.087,17.747-23.715,2.213L107.981,57.07,131.7,54.9m2.411-6.166L95.53,52.287l25.968,28.7,38.577-3.518Z" transform="translate(545.011 110.864)"/>
      <path id="Path_247" data-name="Path 247" d="M22.364,204.2l16.482,17.431-3.953,23.715L18.451,227.914,22.4,204.2M18.451,191.55,11.89,229.732l26.6,28.182,6.561-38.182Z" transform="translate(7.003 631.139)"/>
      <path id="Path_248" data-name="Path 248" d="M245.987,268.641l31.937,15.81,6.482,35.02-31.9-15.81-6.522-34.98M234.13,252.87l10.514,56.561,51.383,25.534L285.473,278.4,234.09,252.87Z" transform="translate(1506.162 851.602)"/>
      <path id="Path_249" data-name="Path 249" d="M60.875,52.662l17.431,6.166,5.573,17.589L66.448,70.291,60.915,52.662M53.8,45.35l8.933,28.5,28.182,9.921-8.972-28.5Z" transform="translate(280.382 100.885)"/>
      <path id="Path_250" data-name="Path 250" d="M156.26,207.408l2.49,21.067-15.336,14.664-2.49-21.067,15.336-14.664m3.953-10.988L135.39,220.135l3.953,34.032,24.822-23.715-3.953-34.071Z" transform="translate(779.497 647.15)"/>
      <path id="Path_251" data-name="Path 251" d="M89.688,150.056l16.838,9.526,2.648,19.051-16.838-9.328-2.648-19.051m-5.968-8.735,4.269,30.791,27.194,14.941-4.269-30.79L83.72,141.4Z" transform="translate(463.285 454.66)"/>
      <path id="Path_252" data-name="Path 252" d="M127.761,271.078,119.856,287.2l-17.589,3.4,7.905-16.126,17.628-3.4m7.905-5.968-28.458,5.455L94.52,296.572l28.458-5.455Z" transform="translate(532.215 887.741)"/>
      <path id="Path_253" data-name="Path 253" d="M205.047,122.742l-19.763,29.8-35.573,2.016,19.763-29.842,35.771-1.976m17.115-9.8-57.787,3.241L132.28,164.561l57.787-3.241,32.016-48.379Z" transform="translate(785.15 355.929)"/>
      <path id="Path_254" data-name="Path 254" d="M45.868,26.324,69.347,50.712l-5.455,33.4L40.453,59.723l5.415-33.4M40.335,8.538,31.56,62.332l37.905,39.526L78.24,47.866,40.335,8.34Z" transform="translate(65.08 -8.39)"/>
      <path id="Path_255" data-name="Path 255" d="M20.972,93.172a4.387,4.387,0,0,1-1.7-.356A3.953,3.953,0,0,1,17.3,87.4a17.668,17.668,0,0,1,25.3-7.905,9.6,9.6,0,0,0,13.834-4.308,17.628,17.628,0,0,1,25.257-7.905,4.048,4.048,0,1,1-4.071,7,9.526,9.526,0,0,0-7.905-1.028,9.684,9.684,0,0,0-5.929,5.3,17.668,17.668,0,0,1-25.3,7.905,9.526,9.526,0,0,0-13.834,4.308A3.953,3.953,0,0,1,20.972,93.172Z" transform="translate(21.715 187.329)"/>
      <path id="Path_256" data-name="Path 256" d="M242.428,140.806h0a2.609,2.609,0,0,1-2.53-2.727,6.245,6.245,0,0,0-6.759-6.64,11.5,11.5,0,0,1-12.332-12.095,6.284,6.284,0,0,0-1.858-4.822,6.4,6.4,0,0,0-4.9-1.779,2.727,2.727,0,0,1-2.806-2.49,2.688,2.688,0,0,1,2.49-2.806,11.858,11.858,0,0,1,8.933,3.281,11.5,11.5,0,0,1,3.4,8.814,6.324,6.324,0,0,0,6.759,6.64,11.858,11.858,0,0,1,8.933,3.281,11.423,11.423,0,0,1,3.4,8.814,2.609,2.609,0,0,1-2.727,2.53Z" transform="translate(1247.813 335.803)"/>
      <path id="Path_257" data-name="Path 257" d="M206.721,267.985a2.411,2.411,0,1,1,0-4.783,5.573,5.573,0,0,0,4.308-1.9,5.731,5.731,0,0,0,1.383-4.506,10.474,10.474,0,0,1,10.4-11.858,5.613,5.613,0,0,0,4.308-1.9,5.85,5.85,0,0,0,1.383-4.506,2.385,2.385,0,1,1,4.743-.514,10.474,10.474,0,0,1-10.4,11.858,5.81,5.81,0,0,0-4.308,1.937,5.691,5.691,0,0,0-1.344,4.506,10.513,10.513,0,0,1-2.569,8.182,10.4,10.4,0,0,1-7.905,3.518Z" transform="translate(1200.557 801.428)"/>
      <path id="Path_258" data-name="Path 258" d="M56.6,241.229a3.953,3.953,0,0,1-2.372-.83,16.4,16.4,0,0,1-1.462-24.585,9.012,9.012,0,0,0-.791-13.478,16.443,16.443,0,0,1-1.462-24.624,3.953,3.953,0,1,1,5.375,5.3,9.17,9.17,0,0,0-2.688,6.878,9.012,9.012,0,0,0,3.478,6.561,16.443,16.443,0,0,1,1.462,24.625,9.289,9.289,0,0,0-2.688,6.917,9.052,9.052,0,0,0,3.518,6.561,3.756,3.756,0,0,1-2.372,6.68Z" transform="translate(106.686 575.287)"/>
      <path id="Path_259" data-name="Path 259" d="M99.294,298.286a19.289,19.289,0,0,1-19.328-18.538,10.79,10.79,0,0,0-3.953-7.905,10.672,10.672,0,0,0-8.458-2.174,19.328,19.328,0,0,1-22.53-18.3,4.433,4.433,0,1,1,8.854-.474,10.553,10.553,0,0,0,12.332,10,19.328,19.328,0,0,1,22.53,18.261,10.593,10.593,0,0,0,3.953,7.905,10.751,10.751,0,0,0,8.458,2.174,4.436,4.436,0,0,1,1.3,8.775,20.9,20.9,0,0,1-3.162.277Z" transform="translate(104.817 833.38)"/>
      <path id="Path_260" data-name="Path 260" d="M14.513,135.659h-.356a2.964,2.964,0,0,1-2.885-3.083,3.043,3.043,0,0,1,3.083-2.925,6.917,6.917,0,0,0,5.494-2.134,7.036,7.036,0,0,0,1.976-5.573A13.123,13.123,0,0,1,35.5,107.872a7.154,7.154,0,0,0,7.47-7.905,2.964,2.964,0,0,1,2.806-3.162,3,3,0,0,1,3.2,2.806A13.123,13.123,0,0,1,45.3,109.73a13.36,13.36,0,0,1-10,3.953,6.956,6.956,0,0,0-5.494,2.134,7.115,7.115,0,0,0-1.976,5.573,13.083,13.083,0,0,1-13.2,14.071Z" transform="translate(5.171 299.133)"/>
      <path id="Path_261" data-name="Path 261" d="M135.912,136.912a13.994,13.994,0,0,1-6.761-1.74,14.15,14.15,0,0,1-6.875-9.208,7.589,7.589,0,0,0-10.04-5.573,14.071,14.071,0,0,1-18.379-10.2,3.241,3.241,0,1,1,6.285-1.462,7.549,7.549,0,0,0,3.715,5.059,7.905,7.905,0,0,0,6.324.514,13.992,13.992,0,0,1,18.34,10.158,7.905,7.905,0,0,0,3.953,5.1,7.668,7.668,0,0,0,6.324.474A3.137,3.137,0,1,1,140.734,136a14.229,14.229,0,0,1-4.822.909Z" transform="translate(529.246 330.456)"/>
      <path id="Path_262" data-name="Path 262" d="M25.112,199.881a3.952,3.952,0,0,1-2.767-1.146,16.877,16.877,0,0,1,1.462-25.3,9.17,9.17,0,0,0,.751-13.795,16.957,16.957,0,0,1,1.462-25.3,3.953,3.953,0,1,1,4.862,6.047,9.13,9.13,0,0,0-.791,13.794,16.917,16.917,0,0,1-1.423,25.3,9.368,9.368,0,0,0-3.557,6.719,9.21,9.21,0,0,0,2.767,7.075,3.953,3.953,0,0,1,0,5.494A3.715,3.715,0,0,1,25.112,199.881Z" transform="translate(23.069 426.606)"/>
      <path id="Path_263" data-name="Path 263" d="M168.371,77.582a16.364,16.364,0,0,1-5.889-1.107,3.715,3.715,0,1,1,2.609-6.957,8.933,8.933,0,0,0,7.272-.355,9.091,9.091,0,0,0,4.506-5.81,16.206,16.206,0,0,1,21.542-11.225A8.775,8.775,0,0,0,210.268,46a3.72,3.72,0,0,1,7.194,1.9,16.245,16.245,0,0,1-21.581,11.225,8.933,8.933,0,0,0-7.273.356A9.13,9.13,0,0,0,184.1,65.25a16.166,16.166,0,0,1-15.81,12.332Z" transform="translate(944.544 94.621)"/>
      <path id="Path_264" data-name="Path 264" d="M226.206,175.62a2.174,2.174,0,0,1-1.5-.593L210.356,161.9a2.213,2.213,0,0,1,2.964-3.281l14.348,13.162a2.253,2.253,0,0,1,0,3.122A2.174,2.174,0,0,1,226.206,175.62Z" transform="translate(1228.998 510.75)"/>
      <path id="Path_265" data-name="Path 265" d="M106.9,203.991a2.372,2.372,0,0,1-1.739-.79l-13.6-15.415a2.332,2.332,0,0,1,3.478-3.083l13.6,15.375a2.332,2.332,0,0,1-.2,3.281,2.293,2.293,0,0,1-1.541.632Z" transform="translate(505.241 600.84)"/>
      <path id="Path_266" data-name="Path 266" d="M73.007,89.143a2.727,2.727,0,0,1-2.688-2.174,2.688,2.688,0,0,1,2.055-3.281L96.09,78.155a2.78,2.78,0,0,1,1.265,5.415L73.64,89.064Z" transform="translate(380.093 233.114)"/>
      <path id="Path_267" data-name="Path 267" d="M197.946,35.734a2.569,2.569,0,0,1-2.53-2.016,2.609,2.609,0,0,1,1.937-3.162l22.53-5.415a2.648,2.648,0,0,1,3.162,1.937,2.569,2.569,0,0,1-1.937,3.162l-22.53,5.415a1.859,1.859,0,0,1-.633.079Z" transform="translate(1146.551 41.015)"/>
      <path id="Path_268" data-name="Path 268" d="M277.287,269.113a2.371,2.371,0,0,1-2.332-1.858l-4.941-20.712a2.411,2.411,0,0,1,4.664-1.107l4.941,20.711a2.411,2.411,0,0,1-1.779,2.885Z" transform="translate(1612.175 824.924)"/>
      <path id="Path_269" data-name="Path 269" d="M181.606,273.983a2.332,2.332,0,0,1-2.134-1.383l-8.34-18.972a2.332,2.332,0,1,1,4.229-1.9l8.379,18.814a2.371,2.371,0,0,1-1.186,3.083A2.727,2.727,0,0,1,181.606,273.983Z" transform="translate(989.023 843.454)"/>
      <path id="Path_270" data-name="Path 270" d="M174.173,226.209a3.818,3.818,0,0,1-.316-7.628l34.387-2.016a3.959,3.959,0,0,1,.435,7.905l-34.348,2.016Z" transform="translate(999.802 712.526)"/>
      <path id="Path_271" data-name="Path 271" d="M119.69,247.076a2.016,2.016,0,0,1-1.976-1.5l-5.178-17.589a2.063,2.063,0,0,1,3.953-1.186l5.178,17.549a2.1,2.1,0,0,1-1.383,2.569Z" transform="translate(632.707 744.124)"/>
      <path id="Path_272" data-name="Path 272" d="M301.947,207.346h-.4l-29.96-3.6a3.478,3.478,0,0,1-3-3.953,3.439,3.439,0,0,1,3.953-2.964l29.96,3.6a3.4,3.4,0,0,1,3,3.755,3.478,3.478,0,0,1-3.557,3.162Z" transform="translate(1607.91 644.135)"/>
      <path id="Path_273" data-name="Path 273" d="M237.1,160.443,230.82,154.2l31.7-31.858,31.858,31.7-6.245,6.245L262.559,134.87Z" transform="translate(1524.61 425.439)"/>
      <path id="Path_274" data-name="Path 274" d="M209.373,228.875l-5.692-3.241,13.241-23.2L193.76,189.192,197,183.5l28.893,16.522Z" transform="translate(1190.109 638.712)"/>
      <path id="Path_275" data-name="Path 275" d="M163.883,293.681,146.65,269.649l4.743-3.4,13.834,19.289,19.289-13.794,3.4,4.743Z" transform="translate(904.875 924.269)"/>
      <path id="Path_276" data-name="Path 276" d="M249.131,79.739,217.55,73.771l5.968-31.581,6.206,1.146-4.783,25.376,25.375,4.783Z" transform="translate(1336.651 124.717)"/>
      <path id="Path_277" data-name="Path 277" d="M182.12,36.778l-30.83-25.85,5.1-6.087,24.743,20.751L201.922.81l6.087,5.1Z" transform="translate(940.879 2.539)"/>
      <path id="Path_278" data-name="Path 278" d="M186.2,114.54l-3.953-22.609L159.6,95.884l-.949-5.573,28.182-4.9,4.9,28.182Z" transform="translate(974.917 296.685)"/>
      <path id="Path_279" data-name="Path 279" d="M284.624,34.618,259.96,15.052l3.834-4.862,19.842,15.692,15.692-19.8,4.862,3.834Z" transform="translate(1610.648 18.099)"/>
      <path id="Path_280" data-name="Path 280" d="M226.559,292.4l-12.016-22.569-22.569,12.055-2.964-5.534,28.1-15.02,14.98,28.1Z" transform="translate(1167.318 909.742)"/>
      <path id="Path_281" data-name="Path 281" d="M257.009,234.137,226.06,203.5l6.047-6.087L256.93,222l24.625-24.822,6.087,6.047Z" transform="translate(1510.556 685.476)"/>
    </g>
    <path id="neon-with-yellow-question-mark-grey-brick-wall-with-spotlight-area" d="M0,0H1920V1218H0Z" fill="#f2f2f2" opacity="0.8"/>
  </g>
</svg>
